<svg width="28" height="26" viewBox="0 0 28 26" fill="none" xmlns="http://www.w3.org/2000/svg">
<g id="home">
<line id="Line 1" x1="5.0152" y1="26" x2="5.0152" y2="9.1" stroke="black" stroke-width="1.5"/>
<line id="Line 2" x1="23.2152" y1="26" x2="23.2152" y2="9.1" stroke="black" stroke-width="1.5"/>
<path id="Line 5" d="M14 0.816864L27 12.5169" stroke="black" stroke-width="1.5" stroke-linecap="round"/>
<path id="Line 6" d="M14 0.816864L1 12.5169" stroke="black" stroke-width="1.5" stroke-linecap="round"/>
<line id="Line 7" x1="5.7652" y1="25.25" x2="22.6652" y2="25.25" stroke="black" stroke-width="1.5"/>
<path id="Line 8" d="M20.2152 6.5C20.2152 6.77614 20.439 7 20.7152 7C20.9913 7 21.2152 6.77614 21.2152 6.5H20.2152ZM20.2152 0V6.5H21.2152V0L20.2152 0Z" fill="black"/>
<path id="Line 9" d="M17.6152 3.9C17.6152 4.17614 17.839 4.4 18.1152 4.4C18.3913 4.4 18.6152 4.17614 18.6152 3.9H17.6152ZM17.6152 0V3.9H18.6152V0L17.6152 0Z" fill="black"/>
<path id="Line 10" d="M12.2652 14.3H16.1652" stroke="black" stroke-width="1.5" stroke-linecap="round"/>
<path id="Line 11" d="M17.1402 14.3V24.7" stroke="black" stroke-width="1.5" stroke-linecap="square"/>
<path id="Line 12" d="M11.9402 14.3V24.7" stroke="black" stroke-width="1.5" stroke-linecap="square"/>
</g>
</svg>
