<svg width="32" height="32" viewBox="0 0 32 32" fill="none" xmlns="http://www.w3.org/2000/svg">
<g id="Component 1">
<path id="Vector_Voiti" d="M13.717 3.43701C14.8112 3.00241 16.0066 2.88897 17.163 3.11001C18.3157 3.32818 19.3804 3.87597 20.228 4.68701C21.0678 5.48969 21.6448 6.52794 21.883 7.66501C22.1178 8.79872 21.9973 9.97724 21.538 11.04C21.0739 12.1095 20.3008 13.0159 19.318 13.643C18.3273 14.2761 17.1757 14.6117 16 14.61H15.999C14.4255 14.6125 12.9118 14.0078 11.773 12.922C11.2156 12.3908 10.7713 11.7525 10.4666 11.0454C10.162 10.3383 10.0033 9.57695 10 8.80701V8.80501C10 7.64801 10.357 6.52001 11.022 5.56501C11.6922 4.60672 12.6294 3.86669 13.717 3.43701ZM19.925 8.07101C19.7691 7.32883 19.3918 6.65137 18.843 6.12801C18.2742 5.58574 17.5604 5.21998 16.788 5.07501C16.0055 4.92571 15.1967 5.00201 14.456 5.29501C13.7332 5.57984 13.11 6.07086 12.664 6.70701C12.2335 7.32204 12.0017 8.05425 12 8.80501C12.001 9.80101 12.413 10.765 13.16 11.481C13.573 11.879 14.072 12.183 14.617 12.375C15.055 12.529 15.522 12.61 16 12.611C16.8 12.611 17.579 12.383 18.238 11.96C18.416 11.845 18.583 11.718 18.738 11.58C19.155 11.207 19.484 10.753 19.701 10.249C19.9986 9.5635 20.0768 8.80273 19.925 8.07101ZM23.309 19.22C21.1012 17.8953 18.5748 17.1955 16 17.1955C13.4252 17.1955 10.8988 17.8953 8.691 19.22C7.56516 19.8956 6.63346 20.8512 5.98663 21.9938C5.3398 23.1364 4.99989 24.427 5 25.74V27C5 28 6 29 7 29H25C26 29 27 28 27 27V25.74C27.0001 24.427 26.6602 23.1364 26.0134 21.9938C25.3665 20.8512 24.4348 19.8956 23.309 19.22ZM9.72 20.935C11.617 19.7968 13.7877 19.1955 16 19.1955C18.2123 19.1955 20.383 19.7968 22.28 20.935C23.1095 21.4328 23.7961 22.1369 24.2727 22.9788C24.7494 23.8206 24.9999 24.7716 25 25.739V27.001H7V25.739C7.00006 24.7716 7.25062 23.8206 7.72728 22.9788C8.20394 22.1369 8.89046 21.4328 9.72 20.935Z" fill="black"/>
</g>
</svg>
